<?xml version="1.0" encoding="UTF-8"?>
<svg xmlns="http://www.w3.org/2000/svg" id="a" width="65px" height="65px" viewBox="0 0 65 65"><circle cx="24.5" cy="26.5" r="21.5" fill="#ffec95"/><path d="M19.98,9H55V55H17V11.98c0-1.65,1.34-2.98,2.98-2.98Z" fill="#fff"/><path d="M23,9h-3.02c-1.65,0-2.98,1.34-2.98,2.98V55h6V9Z" fill="#a9ba5a"/><path d="M21,51H55v8H21c-2.21,0-4-1.79-4-4h0c0-2.21,1.79-4,4-4Z" fill="#e2e2e2"/><path d="M38,15c-3.13,1.81-5.23,5.18-5.23,9.06s2.11,7.25,5.23,9.06c3.13-1.81,5.23-5.18,5.23-9.06s-2.11-7.25-5.23-9.06Z" fill="#a9ba5a"/><path d="M62.93,17.92c-.59,0-1.07,.48-1.07,1.07s.48,1.07,1.07,1.07,1.07-.48,1.07-1.07-.48-1.07-1.07-1.07Z" fill="#4c241d"/><path d="M9.5,38c-1.93,0-3.5,1.57-3.5,3.5s1.57,3.5,3.5,3.5,3.5-1.57,3.5-3.5-1.57-3.5-3.5-3.5Zm0,5c-.83,0-1.5-.67-1.5-1.5s.67-1.5,1.5-1.5,1.5,.67,1.5,1.5-.67,1.5-1.5,1.5Z" fill="#4c241d"/><path d="M55,8H19.98c-2.2,0-3.98,1.79-3.98,3.98V55c0,2.76,2.24,5,5,5H55c.55,0,1-.45,1-1V9c0-.55-.45-1-1-1Zm-1,42H24V10h30V50ZM19.98,10h2.02V50h-1c-1.13,0-2.16,.39-3,1.03V11.98c0-1.09,.89-1.98,1.98-1.98Zm1.02,48c-1.3,0-2.4-.84-2.82-2h15.82c.55,0,1-.45,1-1s-.45-1-1-1h-15.82c.41-1.16,1.51-2,2.82-2H54v6H21Z" fill="#4c241d"/><path d="M4.54,26.29c-.39-.39-1.02-.39-1.41,0l-.71,.71-.71-.71c-.39-.39-1.02-.39-1.41,0-.39,.39-.39,1.02,0,1.41l.71,.71-.71,.71c-.39,.39-.39,1.02,0,1.41,.2,.2,.45,.29,.71,.29s.51-.1,.71-.29l.71-.71,.71,.71c.2,.2,.45,.29,.71,.29s.51-.1,.71-.29c.39-.39,.39-1.02,0-1.41l-.71-.71,.71-.71c.39-.39,.39-1.02,0-1.41Z" fill="#4c241d"/><path d="M37,33.64v4.36c0,.55,.45,1,1,1s1-.45,1-1v-4.36c3.23-2.11,5.23-5.72,5.23-9.59,0-4.07-2.2-7.87-5.73-9.92-.31-.18-.69-.18-1,0-3.54,2.05-5.73,5.85-5.73,9.92s2,7.48,5.23,9.59Zm1-17.47c2.62,1.75,4.23,4.72,4.23,7.88,0,2.74-1.21,5.33-3.23,7.11v-6.75l1.71-1.71c.39-.39,.39-1.02,0-1.41s-1.02-.39-1.41,0l-.29,.29v-1.59c0-.55-.45-1-1-1s-1,.45-1,1v5.59l-.29-.29c-.39-.39-1.02-.39-1.41,0s-.39,1.02,0,1.41l1.71,1.71v2.75c-2.03-1.78-3.23-4.37-3.23-7.11,0-3.16,1.61-6.13,4.23-7.88Z" fill="#4c241d"/><path d="M30,43h16c.55,0,1-.45,1-1s-.45-1-1-1H30c-.55,0-1,.45-1,1s.45,1,1,1Z" fill="#4c241d"/><path d="M43,44h-10c-.55,0-1,.45-1,1s.45,1,1,1h10c.55,0,1-.45,1-1s-.45-1-1-1Z" fill="#4c241d"/></svg>
